<svg xmlns="http://www.w3.org/2000/svg" version="1.1" viewBox="-5.0 -10.0 110.0 135.0">
 <path d="m81.25 12.5h-62.5c-5.7422 0-10.418 4.6719-10.418 10.418v39.582c0 5.7422 4.6719 10.418 10.418 10.418h15.594c0.56641 0 1.1172 0.23438 1.5117 0.64844l12.637 13.289c0.39062 0.41406 0.9375 0.64844 1.5117 0.64844 0.57422 0 1.1172-0.23438 1.5117-0.64844l12.637-13.289c0.39062-0.41406 0.94141-0.64844 1.5117-0.64844h15.594c5.7422 0 10.418-4.6719 10.418-10.418l-0.007812-39.582c0-5.7422-4.6719-10.418-10.418-10.418zm-12.898 26.367-7.1797 7.1211c-0.39844 0.39453-0.58203 0.95703-0.49219 1.5117l1.6211 9.9844c0.23047 1.4102-1.2422 2.4766-2.5117 1.8242l-8.9922-4.6289c-0.49609-0.25781-1.0898-0.25781-1.5898 0l-8.9922 4.6289c-1.2695 0.65234-2.7383-0.41797-2.5117-1.8242l1.6211-9.9844c0.089843-0.55469-0.09375-1.1172-0.49219-1.5117l-7.1797-7.1211c-1.0117-1.0039-0.44922-2.7344 0.95703-2.9492l9.9961-1.543c0.55469-0.085938 1.0352-0.43359 1.2852-0.93359l4.5547-9.0312c0.64063-1.2734 2.4609-1.2734 3.1016 0l4.5547 9.0312c0.25391 0.5 0.73047 0.85156 1.2852 0.93359l9.9961 1.543c1.4102 0.21484 1.9727 1.9453 0.95703 2.9492z"/></svg>